<svg width="239" height="26" viewBox="0 0 239 26" fill="none" xmlns="http://www.w3.org/2000/svg">
<path d="M68.7245 11.089C68.4006 8.67706 66.4574 7.18558 63.1506 7.18558C59.8012 7.18558 57.5938 8.73672 57.6023 11.2594C57.5938 13.2197 58.8296 14.4896 61.3864 15.0009L63.6534 15.4526C64.7955 15.6827 65.3154 16.1004 65.3324 16.7566C65.3154 17.5322 64.4716 18.0861 63.2017 18.0861C61.9063 18.0861 61.0455 17.5322 60.8239 16.4668L57.2529 16.6543C57.5938 19.16 59.7245 20.7026 63.1932 20.7026C66.5853 20.7026 69.0142 18.9725 69.0228 16.3901C69.0142 14.4981 67.7784 13.3646 65.2387 12.8447L62.8693 12.3674C61.6506 12.1032 61.1989 11.6856 61.2074 11.0549C61.1989 10.2708 62.0853 9.75944 63.2103 9.75944C64.4716 9.75944 65.2216 10.4498 65.4006 11.2935L68.7245 11.089Z" fill="#F8F8F8"/>
<path d="M71.309 25.356H74.9397V18.3504H75.0505C75.5533 19.4413 76.6527 20.66 78.7664 20.66C81.7493 20.66 84.076 18.2992 84.076 13.9185C84.076 9.41854 81.647 7.18558 78.7749 7.18558C76.5845 7.18558 75.5363 8.48956 75.0505 9.5549H74.8885V7.35603H71.309V25.356ZM74.863 13.9015C74.863 11.5663 75.8516 10.0748 77.6158 10.0748C79.4141 10.0748 80.3686 11.6344 80.3686 13.9015C80.3686 16.1856 79.397 17.7708 77.6158 17.7708C75.8686 17.7708 74.863 16.2367 74.863 13.9015Z" fill="#F8F8F8"/>
<path d="M90.2294 20.6941C92.1641 20.6941 93.4169 19.8504 94.0561 18.6316H94.1584V20.4469H97.6016V11.6174C97.6016 8.49808 94.9595 7.18558 92.0448 7.18558C88.9084 7.18558 86.8459 8.68558 86.3431 11.0719L89.701 11.3447C89.9482 10.4754 90.7237 9.83615 92.0277 9.83615C93.2635 9.83615 93.9709 10.4583 93.9709 11.5322V11.5833C93.9709 12.4271 93.076 12.5379 90.8005 12.7594C88.2095 12.9981 85.8828 13.8674 85.8828 16.7907C85.8828 19.3816 87.7323 20.6941 90.2294 20.6941ZM91.2692 18.1884C90.1527 18.1884 89.3516 17.6685 89.3516 16.6714C89.3516 15.6487 90.1953 15.1458 91.4737 14.9668C92.2664 14.856 93.5618 14.6685 93.9965 14.3788V15.768C93.9965 17.1401 92.863 18.1884 91.2692 18.1884Z" fill="#F8F8F8"/>
<path d="M106.333 20.7026C109.819 20.7026 112.009 18.6572 112.18 15.6486H108.754C108.541 17.0464 107.62 17.8305 106.376 17.8305C104.68 17.8305 103.58 16.4072 103.58 13.9015C103.58 11.4299 104.688 10.0151 106.376 10.0151C107.705 10.0151 108.558 10.893 108.754 12.1969H112.18C112.026 9.17138 109.734 7.18558 106.316 7.18558C102.344 7.18558 99.8899 9.93842 99.8899 13.9526C99.8899 17.9327 102.302 20.7026 106.333 20.7026Z" fill="#F8F8F8"/>
<path d="M120.47 20.7026C123.709 20.7026 125.891 19.1259 126.402 16.6969L123.044 16.4754C122.678 17.4725 121.74 17.9924 120.53 17.9924C118.715 17.9924 117.564 16.7907 117.564 14.839V14.8305H126.479V13.8333C126.479 9.38445 123.786 7.18558 120.325 7.18558C116.473 7.18558 113.976 9.92138 113.976 13.9611C113.976 18.1117 116.439 20.7026 120.47 20.7026ZM117.564 12.5805C117.641 11.089 118.774 9.89581 120.385 9.89581C121.962 9.89581 123.053 11.0208 123.061 12.5805H117.564Z" fill="#F8F8F8"/>
<path d="M135.811 7.35603H133.348V4.21967H129.717V7.35603H127.928V10.0833H129.717V16.9015C129.7 19.4668 131.447 20.7367 134.081 20.6259C135.018 20.5918 135.683 20.4043 136.05 20.285L135.479 17.5833C135.3 17.6174 134.916 17.7026 134.575 17.7026C133.851 17.7026 133.348 17.4299 133.348 16.4242V10.0833H135.811V7.35603Z" fill="#F8F8F8"/>
<path d="M138.176 20.4469H141.807V13.0407C141.807 11.4299 142.983 10.3219 144.585 10.3219C145.088 10.3219 145.778 10.4072 146.119 10.518V7.29638C145.795 7.21967 145.344 7.16853 144.977 7.16853C143.511 7.16853 142.31 8.02081 141.832 9.64013H141.696V7.35603H138.176V20.4469Z" fill="#F8F8F8"/>
<path d="M151.354 20.6941C153.289 20.6941 154.542 19.8504 155.181 18.6316H155.283V20.4469H158.727V11.6174C158.727 8.49808 156.085 7.18558 153.17 7.18558C150.033 7.18558 147.971 8.68558 147.468 11.0719L150.826 11.3447C151.073 10.4754 151.849 9.83615 153.153 9.83615C154.389 9.83615 155.096 10.4583 155.096 11.5322V11.5833C155.096 12.4271 154.201 12.5379 151.925 12.7594C149.335 12.9981 147.008 13.8674 147.008 16.7907C147.008 19.3816 148.857 20.6941 151.354 20.6941ZM152.394 18.1884C151.278 18.1884 150.477 17.6685 150.477 16.6714C150.477 15.6487 151.32 15.1458 152.599 14.9668C153.391 14.856 154.687 14.6685 155.121 14.3788V15.768C155.121 17.1401 153.988 18.1884 152.394 18.1884Z" fill="#F8F8F8"/>
<path d="M173.279 7.35603H169.435L166.725 16.7225H166.589L163.87 7.35603H160.035L164.612 20.4469H168.702L173.279 7.35603Z" fill="#F8F8F8"/>
<path d="M180.658 20.7026C183.896 20.7026 186.078 19.1259 186.59 16.6969L183.232 16.4754C182.865 17.4725 181.928 17.9924 180.717 17.9924C178.902 17.9924 177.751 16.7907 177.751 14.839V14.8305H186.666V13.8333C186.666 9.38445 183.973 7.18558 180.513 7.18558C176.661 7.18558 174.163 9.92138 174.163 13.9611C174.163 18.1117 176.626 20.7026 180.658 20.7026ZM177.751 12.5805C177.828 11.089 178.962 9.89581 180.572 9.89581C182.149 9.89581 183.24 11.0208 183.249 12.5805H177.751Z" fill="#F8F8F8"/>
<path d="M192.666 2.9924H189.036V20.4469H192.666V2.9924Z" fill="#F8F8F8"/>
<path d="M195.575 20.4469H199.205V7.35603H195.575V20.4469ZM197.398 5.66853C198.481 5.66853 199.367 4.84183 199.367 3.82763C199.367 2.82194 198.481 1.99524 197.398 1.99524C196.325 1.99524 195.438 2.82194 195.438 3.82763C195.438 4.84183 196.325 5.66853 197.398 5.66853Z" fill="#F8F8F8"/>
<path d="M205.744 12.8788C205.753 11.1913 206.759 10.2026 208.224 10.2026C209.682 10.2026 210.56 11.1572 210.551 12.7594V20.4469H214.182V12.1117C214.182 9.06058 212.392 7.18558 209.665 7.18558C207.722 7.18558 206.315 8.14013 205.727 9.66569H205.574V7.35603H202.114V20.4469H205.744V12.8788Z" fill="#F8F8F8"/>
<path d="M222.941 25.6288C226.683 25.6288 229.342 23.9242 229.342 20.5748V7.35603H225.737V9.5549H225.6C225.114 8.48956 224.049 7.18558 221.859 7.18558C218.987 7.18558 216.558 9.41854 216.558 13.8759C216.558 18.231 218.918 20.2594 221.867 20.2594C223.955 20.2594 225.123 19.2111 225.6 18.1288H225.754V20.5236C225.754 22.3219 224.603 23.0208 223.026 23.0208C221.424 23.0208 220.614 22.3219 220.316 21.5293L216.958 21.981C217.393 24.0435 219.413 25.6288 222.941 25.6288ZM223.018 17.5322C221.237 17.5322 220.265 16.1174 220.265 13.8589C220.265 11.6344 221.219 10.0748 223.018 10.0748C224.782 10.0748 225.771 11.5663 225.771 13.8589C225.771 16.1685 224.765 17.5322 223.018 17.5322Z" fill="#F8F8F8"/>
<path d="M236.955 20.6685C238.045 20.6685 238.992 19.7566 239 18.6231C238.992 17.5066 238.045 16.5947 236.955 16.5947C235.83 16.5947 234.901 17.5066 234.909 18.6231C234.901 19.7566 235.83 20.6685 236.955 20.6685Z" fill="#FF57B2"/>
<path d="M10.2646 0L0.383545 11.5045L10.2646 23.007L12.601 19.3298L5.94252 11.5025L12.601 3.67523L10.2646 0ZM14.5887 22.7323H18.9251L25.8194 0.211919H21.481L14.5887 22.7323ZM30.5025 0L28.1661 3.6772L34.8246 11.5045L28.1661 19.3318L30.5025 23.009L40.3835 11.5065L30.5025 0Z" fill="#FF57B2"/>
</svg>
